<svg id="Layer_1" data-name="Layer 1" xmlns="http://www.w3.org/2000/svg" viewBox="0 0 1279.59 465.58"><path d="M1204.5,371.6c-40.9,6-53.7,9-66.8,15.5-15.7,7.8-26.8,18.4-33.5,31.8-5.8,11.5-7.6,20.6-6.9,35,.6,12.5,1.8,17.4,6.5,26.8,5.9,11.6,14.6,18.5,35.2,27.9,16.1,7.3,18.1,8.1,66,24.4,43.9,14.9,53.1,18.4,64.9,24.5,21.9,11.3,37.7,26.7,47.6,46.4,9.6,19.1,10,46,.9,68.5-1.4,3.7-2.4,6.9-2.1,7.3,2.9,2.8,15.7-8.7,22.5-20.3,11.2-19.3,13.5-41.3,6.7-64.8-4.6-16-12.3-28.4-24.5-40-15-14.1-28.9-20.6-87.5-41.1-60.2-21-77.1-28.1-90.7-38.1-17-12.3-19.8-35.2-6.2-50.3,5.6-6.2,16.4-13.5,25.6-17.2,13-5.4,20.7-6.3,48.8-6.3,22.5,0,26.7.3,35.7,2.2,18.9,4.1,35.2,10.9,49.1,20.5,13.5,9.3,18.9,18.2,22.7,37,1.7,8,3.1,12.6,4.2,13.4,2.7,2,6.1,1.5,7.8-1.1,1.5-2.2,1.6-7.2,1.3-42.8-.3-45.7-.1-44.6-8-46.7-5.1-1.3-47.1-8.3-64.3-10.6C1248.2,371.9,1211,370.7,1204.5,371.6Z" transform="translate(-277.32 -371.29)"/><path d="M791.5,385.2c-7.1.5-51.1,1.2-97.7,1.6-79.4.7-84.8.8-86.5,2.5s-1.8,9.7-1.8,166.7c0,133.9.2,165.1,1.3,166.2s19.2,1.4,90,1.9c48.8.4,90.7.9,93.2,1.3,13.1,1.7,28,2.5,30.3,1.7,2.1-.8,3-2.5,5.2-9.8,1.5-4.8,7-20.7,12.1-35.3s9.4-27.6,9.2-29c-.2-1.9-1-2.6-3.1-2.8-3-.4-3.4,0-18.7,16.9-15.1,16.7-31.2,25.4-54.3,29.4-14,2.4-53.9,3.8-88.7,3.2-36-.7-38.8-1.1-40.6-6.7-2.5-7.7-4.5-41.4-4.7-78.5-.2-33,0-37.6,1.6-42.7,1-3.3,2.6-6.2,3.6-6.8,1.8-.9,39.6-2.2,109.9-3.5l32.2-.7,2.6,5.7,2.5,5.8,4.5-.6c2.5-.2,4.8-.7,5.1-1.1.6-.6-1.6-48.1-2.4-51-.4-1.5-1.2-1.7-4.5-1.3-4.8.6-4.9.7-5.7,4.9-1.3,6.5.8,6.3-74.8,6.6-66.6.3-68.2.3-70.2-1.7-3.8-3.8-4.4-11.4-3.7-46.6.7-33.3,2.6-57.1,5.1-63.1,2.9-7,1.8-6.9,52-7.2,46.9-.3,70.8.7,81,3.4,14.7,3.9,26.6,13.6,35.1,28.7,5,8.9,7.8,11.2,11.3,9,2.3-1.5,2.4-6.9.7-29.8-.9-11.1-1.6-23.4-1.6-27.3,0-5.9-.4-7.6-2-9.2C816.8,383.8,814.4,383.7,791.5,385.2Z" transform="translate(-277.32 -371.29)"/><path d="M1071.2,435.5c-1.6,1.3-4.8,6.2-7.1,10.7-10.4,20.9-10.9,44.3-1.2,64.3,8.6,17.9,22,30.9,42.8,41.4,7.2,3.6,13.7,5.9,63.7,22.8,51.9,17.4,63.3,22.2,81.3,33.9,9.6,6.2,14.3,12.4,16.7,21.9,2.5,10.3,2.9,16.5,1.3,24.1-6.4,30.4-37.1,48.8-78.7,47.1-33.3-1.4-59.9-12.6-82.1-34.6-16.5-16.4-22-27.7-27.5-56.8-.6-3-4.7-5.7-7.4-4.8-4.2,1.3-4.5,3.4-4.4,34.5.1,39.6,1.6,68.6,3.6,70.6,1,1,8.3,2.6,20.4,4.5,10.4,1.6,31.7,5,47.4,7.7l28.5,4.7H1193c25.6,0,29-.4,44.5-5.1,25.9-7.7,49.8-28.6,59-51.3,6-14.6,7.1-35.8,2.6-50.1-5.6-18-20.6-33.1-45.5-45.9-13.8-7.1-24.4-11-72-26.6-59.8-19.6-66.9-22.9-84.2-40-8.9-8.8-10.7-11.1-14.7-19.5a121,121,0,0,1-6.3-16c-1.9-7.2-2.4-24.8-1.1-34.3C1076.3,432.2,1075.6,431.7,1071.2,435.5Z" transform="translate(-277.32 -371.29)"/><path d="M1046.1,719.7c-1.8,1.8-3.6,5.3-4.6,8.8-3.3,11.1.3,23.3,9.5,33.1,5.3,5.6,5.5,6.1,4.1,8.3-.8,1.2-1.9,1-6.5-1.3-6.7-3.3-8.8-6.4-14.2-22-2.1-5.9-4.7-12.2-5.9-13.9-3-4.5-8.2-7.7-12.5-7.7-8.2,0-12.6,7.8-11.8,20.9.6,10.5,4.8,19.2,13.2,27.7,8,7.9,13.6,10.1,28.7,11,7.9.5,11.2,1.1,11.6,2.1.3.7-.5,3.8-1.7,6.8l-2.2,5.4-5-3.4c-2.8-1.9-6.1-3.5-7.4-3.5-3.5,0-6.4,3.4-6.4,7.6,0,4.6,1.4,7,5.1,9,4,2,7.3,1.2,10.9-2.7l2.7-3,3.3,4.1,3.3,4.1,3.6-3.5,3.7-3.6h106.8l3.2,3.5c2.7,2.9,3.8,3.5,7.4,3.5,3.3,0,4.8-.6,7.1-2.9,4.3-4.4,3.4-9.6-2.3-13.1-4.9-3-9.9-2.6-13.6,1l-3.2,3H1066.2l-2.2-4.5c-2.6-5.3-2.1-9,1.2-9.8,1.3-.3,48-.9,104-1.3l101.6-.7.8,5.9c1,7.7.8,8.8-2.8,13.9-2.9,4.1-3,4.6-1.8,7.5,2.7,6.5,13.1,8,17.7,2.5,1.3-1.4,2.3-3.3,2.3-4.1s-2-3.6-4.5-6.3c-4.2-4.5-4.5-5.2-5.1-11.8-.6-6.4-.5-7.1,1.2-7.6,3.2-1,216-1.3,228.7-.4,11.6.9,11.7.9,11.7,3.4,0,4.1,3,9.1,6.9,11.5,3,1.9,5,2.3,12.6,2.3,10.4,0,14.9-1.5,17-5.6,2-3.8,1.9-7.8-.5-14.2a23.58,23.58,0,0,0-13.3-13.7c-6.5-2.9-9.8-2-16.7,4.5l-5.5,5.2-121.7-.5-121.6-.5-.6-4.1c-2-15-2-16.6.6-19.4,3.4-3.7,3.9-5.4,2.6-9.8-1.3-5-5.8-9.4-9.5-9.4-4,0-6.1,1.8-7.7,6.4-1.7,4.8-.6,9.3,2.8,12.1,3.6,3,4.3,5.2,5,15.1l.7,9.1-21.8.7c-12,.3-51.7.8-88.3,1.2-67.4.6-95.5-.2-97-2.7a17.21,17.21,0,0,1-1.4-5.1c-.6-3.4-.2-4.4,2.9-8.5,7.3-9.5,8.1-20.8,2.4-32.3-3.5-7-7.4-10.1-13.4-10.8C1049.6,716.8,1048.7,717.1,1046.1,719.7Zm226.6,20.5c3.1,2.9,3,6.5-.2,8a5.48,5.48,0,0,1-7.5-5C1265,737.9,1268.7,736.5,1272.7,740.2ZM1046.1,798c2.4,1.4,2.4,4.2,0,6.4-2.6,2.4-5.3,1.7-6.5-1.6C1038,798.3,1041.6,795.6,1046.1,798Zm143.1,2.1c1.8,2.2,1.4,4.7-1,6.6-5.1,4.1-12.7-3.2-8.1-7.8C1182.6,796.4,1186.6,797,1189.2,800.1Zm91.4,6.1c2.6,2.8.7,5.2-4.4,5.6-3.2.2-4.3-.1-5.1-1.7C1268,804.5,1276.1,801.1,1280.6,806.2Z" transform="translate(-277.32 -371.29)"/><path d="M639.2,729.7c-2,.8-4.2,5.9-4.2,9.9a11.75,11.75,0,0,0,2.5,7,11.77,11.77,0,0,1,2.5,6.5v3.1l-102.5-.4L435,755.4l-5.3-5.1c-8.6-8.4-12.2-9.8-25.2-9.7-9.1,0-12,.4-17,2.4-10.9,4.3-20.4,15.7-22.3,27l-.8,4.5-20,.3-20.1.2-1.4-3.2c-1.9-4.6-7.5-10.6-12.3-13a32.89,32.89,0,0,0-10.7-2.6c-11.4-.8-19.2,4.5-22,14.9-3.4,12.7,8.6,25.9,23.6,25.9,8.4,0,16.7-4.6,20.1-11.2l1.6-3.1,22.3.5c12.2.3,22.9.1,23.8-.3s2.1-3.5,2.7-6.7c3.4-16.2,15.5-27,31.5-28,6.1-.4,8.1-.1,11.8,1.7,5,2.4,8.2,5.5,11.1,10.8l2.1,3.7,105.8-.3,105.7-.3V773H423.1l-4.3-4.6c-5.7-6.1-10.4-8.4-17-8.4-17.6.1-27.1,19-16.1,32.1,7.6,8.9,23.5,9.1,31.5.3,1.4-1.6,3.7-4.2,5-5.8l2.4-2.9,107.2-.5c59-.3,107.2-.1,107.2.3s-1.3,2.3-3,4.2c-6.9,7.8-.9,18.7,9.3,16.8,9.1-1.7,11.3-10.9,4.1-17.6-1.3-1.2-2.4-2.6-2.4-3.1s9.1-.8,20.2-.8h20.2l-3.1,3.2c-3.7,4-4.7,6.9-3.8,11.4.7,4.1,5.3,7.4,10.2,7.4,4,0,8.9-4,9.8-8,.7-3.2-1.7-9.5-4.1-10.4a2.31,2.31,0,0,1-1.4-2.1c0-1.3,4.6-1.5,41.2-1.3l41.1.3,1.2,5.6a18.28,18.28,0,0,0,4.3,9.3c3.1,3.6,3.8,5.9,2.6,9-.6,1.4-9.7,1.6-93.5,1.6H599v5h93.5c85.2,0,93.5.1,93.5,1.6,0,.9-1.2,2.5-2.6,3.7-10.8,8.4-.5,22.1,12.1,16.1a9.54,9.54,0,0,0,5.3-9.9,10.5,10.5,0,0,1-.4-2.7c0-.1,37.7-.5,83.6-.8l83.5-.5,5.7-2.8c7.4-3.6,15.7-11.2,19-17.4,9.2-16.8,9.7-42.7,1.1-59.8-3.8-7.5-11.7-12.4-17.7-10.9C969.8,732,965,741,965,750.4c0,2.8.9,12.7,2.1,22.1s1.8,18.9,1.5,21.3c-.8,6-3.8,11.3-9.2,16.1-8.3,7.3-6,7.1-85.8,7.1-39.1,0-72.8-.3-74.8-.6l-3.8-.7v-7.8c0-6.3.4-8.2,1.9-9.6,3.7-3.6,5.3-7.1,4.9-11l-.3-3.8h66c67.7,0,73.3-.3,80.5-4,6.8-3.5,10-10.3,10-21.3,0-6.5-.4-8.4-2.1-10.6-5.6-7.1-15.2-7.4-22.2-.8-1.6,1.5-4.6,6.2-6.8,10.4-4.9,9.7-7.5,12.1-16.3,15l-7.1,2.3L800,774.1c-56.9-.2-103.7-.5-103.9-.7a23.16,23.16,0,0,1-.9-5l-.5-4.6,88.4.5c48.6.3,96.1,1.1,105.4,1.6s18.9.8,21.3.5c8.3-1.2,14.2-7.4,16.3-17.1,1-5,.9-6.2-.8-10.2-4.1-10-17.2-13.3-25.4-6.4a31.25,31.25,0,0,0-5.9,8.7c-3.1,6.9-6.8,10.8-12.4,13.1-4.4,1.9-39.3,4.1-48.2,3.1-2.8-.3-35-.6-71.6-.6l-66.6-.1-.7-2.7c-.4-1.8-.2-2.8.7-3.1a16.33,16.33,0,0,0,4-3.2c4.6-4.6,3.4-13.5-2.3-16.5-3.6-1.8-5.9-1.7-8.5.4-4.8,3.8-5.8,10.5-2.4,16a14,14,0,0,1,2,5.7V756H646v-2.4c0-1.8,1.1-3,4.2-4.8,5.6-3.1,6.7-6.4,3.9-12.1C651.1,730.5,644.7,727.5,639.2,729.7Zm8.9,7.2c2.1,1.6,2.2,2.2,1.1,4.5-2,4.6-9.2,3.1-9.2-1.9C640,735,644.1,733.7,648.1,736.9Zm48.8,2.3c1.4,2.4,1.4,2.8-.3,4.7-4.8,5.3-10.6-1.1-6.3-6.7C691.9,735.2,695.3,736.2,696.9,739.2ZM688,768.5V773H647v-9h41Zm105.6,16.6c1.7,1.9,1.7,2.3.3,4.7-2.7,4.9-8.9,3.7-8.9-1.7C785,783,790.1,781.2,793.6,785.1Zm-145.3,7.1c2.3,2.7,2.2,3.5-.7,5.3-3.7,2.5-7.9,1.6-9.1-1.9-.8-2.4-.6-3.1,1.4-4.7C642.6,788.7,645.6,789.1,648.3,792.2Zm47-.1c2,2.8,1,5.7-2.6,7.5-6.1,3.2-10.6-2.7-5.7-7.6C689.6,789.4,693.5,789.4,695.3,792.1Zm97.5,32.5c3.1,2.2,2.5,5.4-1.3,7-4.1,1.6-7.5.2-7.5-3C784,823.7,788.5,821.6,792.8,824.6Z" transform="translate(-277.32 -371.29)"/></svg>